<svg width="242" height="56" viewBox="0 0 242 56" fill="none" xmlns="http://www.w3.org/2000/svg">
<path fill-rule="evenodd" clip-rule="evenodd" d="M42.8043 11.8278C38.6558 8.77428 32.8156 9.66384 29.7642 13.813L27.508 16.8814L30.2564 18.896L32.5105 15.8337C34.4481 13.1999 38.1496 12.6348 40.7846 14.5738C43.4183 16.509 43.9819 20.2141 42.0435 22.8479C40.108 25.4801 36.4044 26.0458 33.7667 24.1086L26.7441 18.9406L26.256 18.5797L24.6284 17.383L24.1516 17.0316L17.1164 11.8569C12.9682 8.80524 7.12799 9.68964 4.0757 13.8421C1.02311 17.9901 1.91175 23.8254 6.05907 26.8793C10.2097 29.9352 16.0488 29.0459 19.1013 24.8983L21.3836 21.7968L18.6333 19.7816L16.3577 22.8761C14.4196 25.5077 10.7138 26.0725 8.08098 24.1362C5.44843 22.1992 4.88483 18.4932 6.81903 15.8601C8.75838 13.2266 12.465 12.6639 15.0936 14.6009L22.1336 19.7774L22.6086 20.1288L24.2359 21.3267L24.727 21.6836L31.7509 26.8531C35.8994 29.9052 41.7375 29.0174 44.7898 24.8658C47.8424 20.7191 46.9538 14.8807 42.8043 11.8278Z" fill="#582C7E"/>
<path opacity="0.65" fill-rule="evenodd" clip-rule="evenodd" d="M27.5088 7.73462L31.6221 7.83174L25.8553 15.6693L23.1369 13.6765L27.5088 7.73462ZM21.4091 30.9793L17.2997 30.8815L23.0726 23.0343L25.788 25.0237L21.4091 30.9793Z" fill="#582C7E"/>
<path fill-rule="evenodd" clip-rule="evenodd" d="M72.7058 19.368C72.7058 24.485 69.1478 28.3362 63.6247 28.3362H57.5708V10.373H63.6247C69.1478 10.373 72.7058 14.278 72.7058 19.368ZM59.7746 26.3431H63.6247C67.9262 26.3431 70.4225 23.2191 70.4225 19.3679C70.4225 15.4898 68.0059 12.3658 63.6247 12.3658H59.7746V26.3431ZM81.8931 28.6593C83.9639 28.6593 85.6901 27.9321 86.9908 26.6394L86.0353 25.3198C84.9996 26.397 83.539 26.9895 82.0524 26.9895C79.2906 26.9895 77.6181 24.9427 77.4588 22.492H87.814V21.9803C87.814 18.0753 85.5307 15.0051 81.6541 15.0051C77.9899 15.0051 75.3343 18.0483 75.3343 21.8187C75.3343 25.8853 78.0696 28.6593 81.8931 28.6593ZM77.4322 20.9838H85.8494C85.8229 19.0717 84.5481 16.6748 81.6275 16.6748C78.8922 16.6748 77.5384 19.0178 77.4322 20.9838ZM93.0185 28.3361V19.1255C93.6027 18.0752 95.2752 17.0518 96.5233 17.0518C96.8154 17.0518 97.0545 17.0787 97.2935 17.1056V15.032C95.5407 15.032 94.0542 16.0553 93.0185 17.4019V15.3282H91.0267V28.3361H93.0185ZM102.126 12.1234C102.126 12.8775 101.542 13.47 100.798 13.47C100.055 13.47 99.4439 12.8775 99.4439 12.1234C99.4439 11.3694 100.055 10.7499 100.798 10.7499C101.542 10.7499 102.126 11.3694 102.126 12.1234ZM101.781 28.3361V15.3282H99.7892V28.3361H101.781ZM116.703 15.3282L111.367 28.3361H109.189L103.852 15.3282H106.029L110.278 25.993L114.553 15.3282H116.703ZM122.545 28.6593C124.271 28.6593 125.758 28.0399 126.793 26.8549V28.3361H128.785V19.3949C128.785 16.2439 126.554 15.0051 123.819 15.0051C121.722 15.0051 120.075 15.7053 118.695 17.1596L119.624 18.56C120.766 17.2943 122.014 16.7556 123.554 16.7556C125.413 16.7556 126.793 17.7521 126.793 19.4757V21.8187C125.758 20.6337 124.297 20.0682 122.545 20.0682C120.367 20.0682 118.084 21.4148 118.084 24.3502C118.084 27.178 120.394 28.6593 122.545 28.6593ZM120.102 24.3502C120.102 26.02 121.403 27.205 123.289 27.205C124.669 27.205 126.023 26.6664 126.793 25.5891V23.1114C126.023 22.0611 124.669 21.5225 123.289 21.5225C121.403 21.5225 120.102 22.7075 120.102 24.3502ZM136.06 28.6592C137.202 28.6592 137.919 28.3091 138.423 27.8243L137.839 26.2893C137.574 26.5855 137.069 26.8548 136.485 26.8548C135.636 26.8548 135.211 26.1546 135.211 25.1851V17.1056H137.813V15.3282H135.211V11.7733H133.192V15.3282H131.068V17.1056H133.192V25.616C133.192 27.555 134.148 28.6592 136.06 28.6592ZM142.937 12.1234C142.937 12.8775 142.353 13.47 141.61 13.47C140.866 13.47 140.255 12.8775 140.255 12.1234C140.255 11.3694 140.866 10.7499 141.61 10.7499C142.353 10.7499 142.937 11.3694 142.937 12.1234ZM142.592 28.3361V15.3282H140.6V28.3361H142.592ZM157.515 15.3282L152.178 28.3361H150L144.663 15.3282H146.841L151.089 25.993L155.364 15.3282H157.515ZM165.401 28.6593C167.472 28.6593 169.198 27.9321 170.499 26.6394L169.543 25.3198C168.508 26.397 167.047 26.9895 165.56 26.9895C162.799 26.9895 161.126 24.9427 160.966 22.492H171.322V21.9803C171.322 18.0753 169.038 15.0051 165.162 15.0051C161.497 15.0051 158.842 18.0483 158.842 21.8187C158.842 25.8853 161.577 28.6593 165.401 28.6593ZM160.94 20.9838H169.357C169.33 19.0717 168.056 16.6748 165.135 16.6748C162.4 16.6748 161.046 19.0178 160.94 20.9838Z" fill="#271437"/>
<path fill-rule="evenodd" clip-rule="evenodd" d="M192.887 28.336L194.002 25.2928H201.596L202.712 28.336H206.987L200.162 10.3728H195.436L188.612 28.336H192.887ZM179.611 21.9264V28.3361H175.84V10.3729H184.125C187.975 10.3729 190.073 13.0122 190.073 16.1632C190.073 19.2872 187.948 21.9264 184.125 21.9264H179.611ZM179.611 18.5599H183.593C185.081 18.5599 186.223 17.6442 186.223 16.163C186.223 14.6549 185.081 13.7392 183.593 13.7392H179.611V18.5599ZM197.799 14.197L195.038 21.9263H200.561L197.799 14.197ZM214.82 28.336V13.7393H219.971V10.3728H205.845V13.7393H211.023V28.336H214.82ZM226.157 20.7683V28.336H222.387V10.3728H226.157V17.4288H234.522V10.3728H238.319V28.336H234.522V20.7683H226.157Z" fill="#582C7E"/>
</svg>
